{"title":"Motel - Todo Para Ti - 1080p","uid":11719413,"size":93567113,"categoryP":"video","categoryS":"music_videos","magnet":"?xt=urn:btih:aa069529728d15f51d7f6977dee4bede5bfba8c6&amp;dn=Motel+-+Todo+Para+Ti+-+1080p&amp;tr=udp%3A%2F%2Ftracker.openbittorrent.com%3A80&amp;tr=udp%3A%2F%2Fopen.demonii.com%3A1337&amp;tr=udp%3A%2F%2Ftracker.coppersurfer.tk%3A6969&amp;tr=udp%3A%2F%2Fexodus.desync.com%3A6969","seeders":1,"leechers":0,"uploader":"MusicVideos-HQ","files":1,"time":1424753708,"description":"Capturas: http://imgur.com/e8u6IVy \n\nGeneral\n\nComplete name                  : C:UsersEliasVideosvid3Motel-TodoParaTi-musicvideos-hq.net.mp4\nFormat                         : MPEG-4\nFormat profile                 : Base Media\nCodec ID                       : isom\nFile size                      : 89.2 MiB\nDuration                       : 4mn 23s\nOverall bit rate               : 2 838 Kbps\nWriting application            : Lavf55.33.100\n\nVideo\nID                             : 1\nFormat                         : AVC\nFormat/Info                    : Advanced Video Codec\nFormat profile                 : &lt;a class=&quot;__cf_email__&quot; href=&quot;/cdn-cgi/l/email-protection&quot; data-cfemail=&quot;6d25040a052d2159435d&quot;&gt;[email&amp;#160;protected]&lt;/a&gt;&lt;script cf-hash='f9e31' type=&quot;text/javascript&quot;&gt;\n/* &lt;![CDATA[ */!function(){try{var t=&quot;currentScript&quot;in document?document.currentScript:function(){for(var t=document.getElementsByTagName(&quot;script&quot;),e=t.length;e--;)if(t[e].getAttribute(&quot;cf-hash&quot;))return t[e]}();if(t&amp;&amp;t.previousSibling){var e,r,n,i,c=t.previousSibling,a=c.getAttribute(&quot;data-cfemail&quot;);if(a){for(e=&quot;&quot;,r=parseInt(a.substr(0,2),16),n=2;a.length-n;n+=2)i=parseInt(a.substr(n,2),16)^r,e+=String.fromCharCode(i);e=document.createTextNode(e),c.parentNode.replaceChild(e,c)}}}catch(u){}}();/* ]]&gt; */&lt;/script&gt;\nFormat settings, CABAC         : Yes\nFormat settings, ReFrames      : 3 frames\nCodec ID                       : avc1\nCodec ID/Info                  : Advanced Video Coding\nDuration                       : 4mn 23s\nDuration_FirstFrame            : -33ms\nBit rate                       : 2 705 Kbps\nWidth                          : 1 920 pixels\nHeight                         : 1 080 pixels\nDisplay aspect ratio           : 16:9\nFrame rate mode                : Variable\nFrame rate                     : 29.970 fps\nMinimum frame rate             : 29.970 fps\nMaximum frame rate             : 29.990 fps\nColor space                    : YUV\nChroma subsampling             : 4:2:0\nBit depth                      : 8 bits\nScan type                      : Progressive\nBits/(Pixel*Frame)             : 0.044\nStream size                    : 85.0 MiB (95%)\n\nAudio\nID                             : 2\nFormat                         : AAC\nFormat/Info                    : Advanced Audio Codec\nFormat profile                 : LC\nCodec ID                       : 40\nDuration                       : 4mn 23s\nBit rate mode                  : Constant\nBit rate                       : 126 Kbps\nChannel(s)                     : 2 channels\nChannel positions              : Front: L R\nSampling rate                  : 44.1 KHz\nCompression mode               : Lossy\nStream size                    : 3.95 MiB (4%)","torrent":{"xt":"urn:btih:aa069529728d15f51d7f6977dee4bede5bfba8c6","amp;dn":"Motel+-+Todo+Para+Ti+-+1080p","amp;tr":["udp%3A%2F%2Ftracker.openbittorrent.com%3A80","udp%3A%2F%2Fopen.demonii.com%3A1337","udp%3A%2F%2Ftracker.coppersurfer.tk%3A6969","udp%3A%2F%2Fexodus.desync.com%3A6969"],"infoHash":"aa069529728d15f51d7f6977dee4bede5bfba8c6","infoHashBuffer":{"type":"Buffer","data":[170,6,149,41,114,141,21,245,29,127,105,119,222,228,190,222,91,251,168,198]},"announce":[],"urlList":[]}}